# xmcd
#
# Track frame offsets: 
#        150
#        13740
#        36457
#        54853
#        67404
#        78148
#        106093
#        119941
#        131019
#        140931
#        155879
#        162005
#        172265
#        184560
#        194899
#
# Disc length: 2762 seconds
#
# Revision: 1
# Processed by: cddbd v1.5.2PL0 Copyright (c) Steve Scherf et al.
# Submitted via: ExactAudioCopy v0.99pb4
#
DISCID=e80ac80f
DTITLE=Tony Bennett - When Lights Are Low
DYEAR=1964
DGENRE=Jazz Vocals
TTITLE0=Nobody Else But Me
TTITLE1=When Lights Are Low
TTITLE2=On Green Dolphin Street
TTITLE3=Ain't Misbehavin'
TTITLE4=It's A Sin To Tell A Lie
TTITLE5=I've Got Just About Everything
TTITLE6=Judy
TTITLE7=Oh! You Crazy Moon
TTITLE8=Speak Low
TTITLE9=It Had to Be You
TTITLE10=It Could Happen To You
TTITLE11=The Rules Of The Road
TTITLE12=How Long Has This Been Going On?
TTITLE13=All Of You
TTITLE14=We'll Be Together Again
EXTD=
EXTT0=
EXTT1=
EXTT2=
EXTT3=
EXTT4=
EXTT5=
EXTT6=
EXTT7=
EXTT8=
EXTT9=
EXTT10=
EXTT11=
EXTT12=
EXTT13=
EXTT14=
PLAYORDER=
